HIERARCHY
ROOT Hips
{
	OFFSET -3.958830 18.904000 13.208200
	CHANNELS 6 Xposition Yposition Zposition Zrotation Yrotation Xrotation 
	JOINT LHipJoint
	{
		OFFSET 0.000000 0.000000 0.000000
		CHANNELS 3 Zrotation Yrotation Xrotation
		JOINT LeftUpLeg
		{
			OFFSET 1.800000 -1.400000 0.085000
			CHANNELS 3 Zrotation Yrotation Xrotation
			JOINT LeftLeg
			{
				OFFSET 2.215000 -6.000000 0.000000
				CHANNELS 3 Zrotation Yrotation Xrotation
				JOINT LeftFoot
				{
					OFFSET 2.500000 -6.900000 0.000000
					CHANNELS 3 Zrotation Yrotation Xrotation
					JOINT LeftToeBase
					{
						OFFSET 0.200000 -0.500000 1.950000
						CHANNELS 3 Zrotation Yrotation Xrotation
						End Site
						{
							OFFSET 0.000000 0.000000 0.000000
						}
					}
				}
			}
		}
	}
	JOINT RHipJoint
	{
		OFFSET 0.000000 0.000000 0.000000
		CHANNELS 3 Zrotation Yrotation Xrotation
		JOINT RightUpLeg
		{
			OFFSET -1.800000 -1.400000 0.085000
			CHANNELS 3 Zrotation Yrotation Xrotation
			JOINT RightLeg
			{
				OFFSET -2.215000 -6.000000 0.000000
				CHANNELS 3 Zrotation Yrotation Xrotation
				JOINT RightFoot
				{
					OFFSET -2.500000 -6.900000 0.000000
					CHANNELS 3 Zrotation Yrotation Xrotation
					JOINT RightToeBase
					{
						OFFSET -0.200000 -0.500000 1.950000
						CHANNELS 3 Zrotation Yrotation Xrotation
						End Site
						{
							OFFSET 0.000000 0.000000 0.000000
						}
					}
				}
			}
		}
	}
	JOINT LowerBack
	{
		OFFSET 0.000000 0.000000 0.000000
		CHANNELS 3 Zrotation Yrotation Xrotation
		JOINT Spine
		{
			OFFSET -0.087000 1.940000 -0.288900
			CHANNELS 3 Zrotation Yrotation Xrotation
			JOINT Spine1
			{
				OFFSET 0.000000 1.950000 0.060000
				CHANNELS 3 Zrotation Yrotation Xrotation
				JOINT Neck
				{
					OFFSET 0.000000 0.000000 0.000000
					CHANNELS 3 Zrotation Yrotation Xrotation
					JOINT Neck1
					{
						OFFSET 0.000000 1.600000 0.340000
						CHANNELS 3 Zrotation Yrotation Xrotation
						JOINT Head
						{
							OFFSET 0.000000 1.667000 -0.240000
							CHANNELS 3 Zrotation Yrotation Xrotation
							End Site
							{
								OFFSET 0.000000 0.000000 0.000000
							}
						}
					}
				}
				JOINT LeftShoulder
				{
					OFFSET 0.000000 0.000000 0.000000
					CHANNELS 3 Zrotation Yrotation Xrotation
					JOINT LeftArm
					{
						OFFSET 2.700000 1.550000 -0.730000
						CHANNELS 3 Zrotation Yrotation Xrotation
						JOINT LeftForeArm
						{
							OFFSET 5.450000 0.000000 0.000000
							CHANNELS 3 Zrotation Yrotation Xrotation
							JOINT LeftHand
							{
								OFFSET 3.450000 0.000000 0.000000
								CHANNELS 3 Zrotation Yrotation Xrotation
								JOINT LeftHandIndex1
								{
									OFFSET 0.750000 0.000000 0.000000
									CHANNELS 3 Zrotation Yrotation Xrotation
									End Site
									{
										OFFSET 0.000000 0.000000 0.000000
									}
								}
							}
						}
					}
				}
				JOINT RightShoulder
				{
					OFFSET 0.000000 0.000000 0.000000
					CHANNELS 3 Zrotation Yrotation Xrotation
					JOINT RightArm
					{
						OFFSET -2.700000 1.550000 -0.730000
						CHANNELS 3 Zrotation Yrotation Xrotation
						JOINT RightForeArm
						{
							OFFSET -5.450000 0.000000 0.000000
							CHANNELS 3 Zrotation Yrotation Xrotation
							JOINT RightHand
							{
								OFFSET -3.450000 0.000000 0.000000
								CHANNELS 3 Zrotation Yrotation Xrotation
								JOINT RightHandIndex1
								{
									OFFSET -0.750000 0.000000 0.000000
									CHANNELS 3 Zrotation Yrotation Xrotation
									End Site
									{
										OFFSET 0.000000 0.000000 0.000000
									}
								}
							}
						}
					}
				}
			}
		}
	}
}
MOTION
Frames: 11
Frame Time: 0.016667
-0.190500 16.832880 -1.916680 4.729267 5.824682 -6.680819 -15.743185 12.179599 4.374397 -21.663297 -4.922435 -1.043558 -14.978707 15.285590 45.643038 0.218978 11.564091 0.999857 -0.383650 -0.929750 -0.105890 18.194891 -7.747255 4.126943 -6.124388 8.645233 -42.694491 20.831312 -18.302726 47.084592 -1.248537 -9.301079 1.010156 -0.125190 1.235830 0.652870 -2.707935 -4.764549 -8.952273 24.633742 -11.170972 49.817996 -7.287660 -3.134087 -9.415936 9.173707 3.674496 -2.239097 6.093313 -3.285902 17.485850 -20.502680 4.355440 -18.526010 -20.829746 2.383443 -9.936890 23.462461 -8.204387 -0.195740 103.147503 -51.538930 -52.749487 -5.014766 1.660429 0.949370 0.791040 -0.275660 0.061730 2.653918 -6.215216 4.716839 11.612585 -5.604241 -5.714390 -142.800049 45.859103 -111.854405 1.571546 -1.483171 -0.993670 0.791610 0.851930 -0.325920 
-0.201780 16.721610 -1.931530 4.946968 6.097215 -7.677988 -15.715418 12.109337 4.375056 -21.726604 -4.685243 0.388728 -15.139182 15.358458 45.481650 0.239265 11.590617 0.977387 -0.313900 -0.845680 -0.083650 18.224959 -7.813095 4.115890 -6.019690 8.500269 -42.673998 20.547845 -18.650740 48.374987 -1.331013 -9.577494 0.900247 -0.081560 1.206650 0.692220 -2.789933 -4.553157 -8.937906 24.758139 -11.429646 50.576712 -8.417264 -3.597311 -10.164424 9.478548 4.399393 -1.173961 7.155161 -3.621686 17.590233 -20.198700 4.143540 -18.485670 -21.071664 2.981832 -11.526214 27.099172 -12.470558 -0.528358 103.188599 -51.793984 -51.604633 -5.039654 1.733307 0.930910 0.790360 -0.255800 0.084570 2.587679 -8.254440 4.577141 12.287024 -6.990577 -5.156197 -144.012582 43.354194 -109.858903 1.571415 -1.605223 -0.947790 0.742740 0.816470 -0.316440 
-0.238640 16.512670 -1.974960 5.559644 5.689260 -9.028867 -15.859970 12.304766 4.418638 -22.210108 -4.476311 1.474573 -15.462506 16.004722 46.513401 0.512515 11.781314 0.996172 -0.299990 -0.715930 -0.132270 18.116907 -7.448017 4.180529 -4.915299 9.480606 -43.390789 18.822837 -18.815814 52.423238 -1.420232 -10.174277 0.817805 -0.034470 1.218970 0.630700 -2.427579 -5.475252 -9.019121 22.548977 -11.492849 55.820968 -8.823129 -3.220128 -15.643644 10.841434 3.655043 -0.145780 6.125369 -5.624149 15.772866 -22.286290 3.745430 -14.510400 -20.840493 6.345753 -13.806103 29.788064 -17.252636 -0.553293 108.580215 -48.583059 -51.110467 -5.108666 1.876780 0.739060 0.852010 -0.287450 0.163360 -0.182022 -10.301924 4.323970 8.609678 -8.815777 -4.330401 -147.698559 36.395339 -104.175025 1.663444 -1.864376 -0.885140 0.714940 0.682390 -0.220130 
-0.274850 16.365240 -2.034990 6.072967 6.192250 -10.683639 -15.783098 12.004337 4.437898 -23.088209 -4.535308 2.662870 -14.946548 16.225418 48.428292 0.559211 11.971420 0.901739 -0.068480 -0.432600 0.057230 18.219672 -7.515195 4.257271 -5.256057 9.862898 -44.234332 18.391049 -19.481958 55.436083 -1.658889 -10.747109 0.646411 0.110750 1.072040 0.677110 -2.673019 -4.829971 -9.024165 23.781742 -12.970279 58.281397 -11.987259 -4.870532 -15.135339 11.452798 4.457619 0.551801 7.572595 -6.281999 14.486727 -24.656910 3.510510 -18.541330 -22.066230 3.743148 -14.337729 38.784910 -17.472516 -3.104678 113.184380 -44.927788 -51.018238 -5.089733 2.031911 0.780670 0.806690 -0.146390 0.226560 0.076001 -9.910953 4.041859 8.021970 -12.412294 -6.075727 -150.453979 28.504697 -96.478399 1.592442 -2.047792 -0.809350 0.673900 0.505020 -0.238190 
-0.349890 16.316030 -2.083710 6.661055 7.085921 -14.116990 -15.698957 11.847642 4.474809 -23.093236 -4.062073 5.118443 -15.145933 17.110604 49.752617 0.863202 12.259504 0.906062 -0.154660 -0.446010 -0.078840 18.286417 -7.780854 4.123091 -6.282164 9.314465 -41.718683 19.383263 -20.600575 56.586556 -1.746001 -11.169336 0.622410 0.050160 1.119220 0.603490 -2.890616 -4.196226 -8.985741 23.911305 -14.553891 62.675443 -14.648184 -6.978110 -13.610744 11.204763 4.525138 -0.779438 8.025488 -7.575620 13.502294 -23.190540 3.067710 -17.620200 -20.820179 0.381217 -13.187242 41.801059 -15.065880 -5.029987 121.862650 -41.769094 -58.013051 -4.944285 2.179758 0.707460 0.794710 -0.155390 0.294690 -0.888465 -7.116419 5.928592 13.636439 -16.249367 -8.519126 -154.961406 21.945696 -98.102953 1.551690 -2.108244 -0.793330 0.690200 0.450160 -0.133320 
-0.390620 16.321170 -2.079350 6.063419 5.510041 -16.643157 -15.632037 11.912367 4.383887 -20.971816 -2.990281 7.054592 -17.148135 18.509724 48.258817 1.204860 12.320006 0.988391 -0.224910 -0.477890 -0.193850 18.315598 -8.016053 4.032640 -5.236256 9.784458 -38.637294 19.738937 -20.555914 56.190085 -1.737392 -11.134258 0.719787 -0.054110 1.157850 0.598420 -3.039190 -3.833117 -8.898096 23.970816 -15.512711 65.554866 -15.570981 -8.306850 -11.920371 10.783559 3.354264 -2.142117 6.445094 -6.720817 13.220575 -21.946690 4.946510 -14.633950 -19.356546 0.197285 -12.624900 39.061757 -11.140292 -5.454361 130.030370 -40.206753 -68.912162 -4.818720 2.511332 0.575880 0.799390 -0.167550 0.371780 -2.004895 -5.568847 8.121839 20.220523 -13.551362 -7.593449 -157.806971 20.750634 -107.658384 1.657137 -2.130139 -0.702450 0.600960 0.373970 -0.015440 
-0.398830 16.369670 -1.999100 3.981712 2.661212 -18.146266 -15.478211 11.856057 4.226203 -18.796421 -1.594201 9.011837 -16.860011 18.137912 45.598587 1.291786 11.889365 1.174768 -0.374350 -0.665850 -0.359320 18.419410 -8.395225 4.048741 -2.745376 10.602539 -35.216051 20.907816 -20.838762 54.851239 -1.733563 -11.001567 0.824876 -0.240810 1.202490 0.574710 -3.405902 -2.956463 -8.796688 26.433689 -17.137270 63.192741 -16.339592 -9.188986 -4.250642 9.424536 0.999272 -5.777875 2.860327 -4.314315 14.974355 -19.526780 7.002950 -12.289120 -14.281143 0.607183 -8.892888 24.403572 -3.299932 -5.667649 136.899145 -37.124196 -83.240307 -4.538719 2.900296 0.562630 0.754690 -0.217960 0.373070 -5.353602 -2.666332 11.154648 33.658113 -6.921778 -5.755309 -158.982809 24.558966 -126.707819 1.748099 -2.041581 -0.671960 0.531930 0.429640 0.039020 
-0.402380 16.520100 -1.899810 3.474838 1.555334 -16.950695 -15.344685 11.829912 4.148996 -17.619050 -1.071754 8.908278 -16.179183 17.217305 43.513025 1.281378 11.291658 1.285651 -0.371800 -0.691860 -0.405800 18.496722 -8.794456 3.979047 -2.231615 9.958025 -33.548583 20.887077 -19.883543 51.923799 -1.652926 -10.307542 0.998042 -0.367300 1.067020 0.624300 -3.705579 -2.272146 -8.734380 27.782113 -16.141428 57.782209 -15.524213 -7.880290 1.073601 7.801216 0.020485 -8.020705 0.779763 -3.503181 19.487197 -17.059670 5.988730 -14.305180 -11.468927 -0.293745 -4.566004 9.015402 -1.701198 -5.370200 141.063311 -40.675160 -101.789587 -4.305570 3.072596 0.617080 0.604870 -0.135620 0.333930 -4.934993 -0.740409 11.104496 43.192466 -4.786003 -8.151188 -156.919635 32.370698 -137.378904 1.794879 -1.977390 -0.520500 0.410550 0.474850 0.055730 
-0.409420 16.699250 -1.845930 2.619283 0.244051 -15.928818 -15.239827 11.971853 4.054884 -16.147687 -0.601790 8.526392 -14.822681 16.144576 41.862231 1.203371 10.816029 1.442811 -0.489360 -0.856600 -0.511080 18.540565 -9.093784 3.899551 -1.468234 9.459367 -31.591475 20.662994 -18.549948 48.444125 -1.452136 -9.495577 1.261873 -0.495100 1.096200 0.580190 -3.915835 -2.006391 -8.648572 28.871011 -16.625846 55.223487 -15.641305 -7.806193 1.059709 6.802701 -2.602405 -9.769231 -3.864865 -1.512271 22.448088 -14.033300 4.257280 -11.859950 -8.812958 0.765798 -1.037038 -5.425108 1.960452 -5.105482 137.181059 -50.810071 -111.630205 -4.314575 2.930144 0.652070 0.550830 -0.165890 0.301980 -5.820337 1.014067 10.574778 48.849482 -0.909113 -10.148754 -152.808082 43.198040 -140.773364 1.837386 -1.863082 -0.528250 0.437040 0.561450 0.073930 
-0.429240 16.921550 -1.802640 1.931457 -1.704819 -15.255624 -15.180311 12.247450 3.944024 -13.850129 -0.135058 8.288253 -14.406215 15.624483 39.931046 1.175731 10.400212 1.586832 -0.585390 -0.970840 -0.597580 18.536196 -9.300272 3.828062 -0.605145 9.206885 -29.512483 19.477171 -16.999060 45.971593 -1.265089 -8.746168 1.539446 -0.597220 1.098250 0.500900 -3.982978 -2.089535 -8.578312 28.293386 -16.477159 54.024286 -15.190222 -7.426616 -0.319387 5.938716 -4.449490 -11.780765 -7.724601 0.061494 25.839992 -11.287820 2.582310 -8.348900 -7.295213 0.149689 2.192572 -14.978365 7.982681 -6.057245 131.960574 -59.833630 -115.859177 -4.271326 2.774708 0.674980 0.489020 -0.176610 0.291210 -5.668110 3.814231 10.747568 51.271296 -1.087036 -13.170248 -147.653051 54.396426 -141.374293 1.910441 -1.737878 -0.536670 0.467380 0.592440 0.101210 
-0.460130 17.144230 -1.738900 1.192046 -1.796288 -12.713235 -15.130101 12.505330 3.792674 -12.218921 -0.608725 5.992271 -12.336937 14.221113 39.424635 1.002960 9.943336 1.698043 -0.670490 -1.131350 -0.689320 18.534502 -9.378485 3.829459 -1.219130 8.731819 -29.752625 19.685736 -16.407081 43.566639 -1.115148 -8.262509 1.669653 -0.692940 1.129660 0.481460 -4.048441 -2.351537 -8.514251 28.043605 -16.848345 50.801163 -14.384444 -7.740425 -4.485473 4.767113 -6.602026 -12.996031 -12.326715 2.933280 28.525694 -7.225300 0.608250 -4.428200 -4.917472 2.568442 4.641901 -26.030958 11.831606 -5.222708 114.218981 -68.967214 -102.040633 -4.358030 1.858669 0.728770 0.446430 -0.222900 0.259090 -5.742335 3.502119 9.919091 53.410967 0.048675 -12.078320 -132.030962 65.583758 -126.009647 2.074493 -1.375258 -0.559930 0.457140 0.684860 0.101260 
